#!OML:ASF E:\VariousWalksJay\Project 1\Capture day 1\Session 1\Actor2.ASF
:FULLY-SPECIFIED
:DEGREES
1078
root -11.3751 15.3527 33.9974 24.0405 -24.7795 -8.34816
lowerback 12.9205 -1.84724 4.9502
upperback 13.655 -2.30586 -1.02412
thorax 7.16232 -0.786349 -3.71735
lowerneck 7.87443 -0.422407 -0.408459
upperneck -6.00913 0.0658555 9.2275
head -3.40208 -0.357329 3.17345
rclavicle -3.18055e-015 -2.06736e-014
rhumerus -26.0689 16.7087 -86.8972
rradius 75.8985
rwrist 0.77497
rhand -26.0284 -11.3502
rfingers 7.12502
rthumb 0.518273 -41.3293
lclavicle -3.18055e-015 -2.06736e-014
lhumerus 37.5004 -27.7706 56.913
lradius 63.4873
lwrist 63.9013
lhand -36.4277 14.7993
lfingers 7.12502
lthumb -9.52245 44.5641
rfemur -9.40687 -2.44402 26.342
rtibia 46.6107
rfoot -29.0098 -4.68542
rtoes -36.715
lfemur -67.4125 2.0808 -15.1338
ltibia 52.4573
lfoot -2.61283 -6.92584
ltoes -6.35345
1079
root -11.3799 15.3541 34.0267 24.1471 -24.8739 -8.35359
lowerback 12.9064 -1.84787 5.02515
upperback 13.6567 -2.30275 -1.03941
thorax 7.171 -0.777588 -3.77648
lowerneck 7.887 -0.409594 -0.349614
upperneck -6.06003 0.0906681 9.18509
head -3.42265 -0.34661 3.14764
rclavicle -3.33958e-014 4.21423e-014
rhumerus -25.9157 16.6009 -86.859
rradius 75.8291
rwrist 0.806562
rhand -26.0004 -11.4089
rfingers 7.12502
rthumb 0.545358 -41.3879
lclavicle -3.33958e-014 4.21423e-014
lhumerus 37.3766 -27.7663 56.941
lradius 63.5774
lwrist 63.9523
lhand -36.4289 14.7736
lfingers 7.12502
lthumb -9.52367 44.5384
rfemur -9.35031 -2.46489 26.3371
rtibia 46.4287
rfoot -28.9362 -4.90663
rtoes -36.6379
lfemur -67.4608 2.02184 -15.1015
ltibia 52.5867
lfoot -2.82838 -6.80028
ltoes -5.78973
1080
root -11.3846 15.3554 34.0545 24.2352 -24.9547 -8.34929
lowerback 12.8981 -1.85456 5.09789
upperback 13.6635 -2.30747 -1.05702
thorax 7.18151 -0.772644 -3.83624
lowerneck 7.88139 -0.394362 -0.288938
upperneck -6.11078 0.118827 9.1484
head -3.43986 -0.334144 3.123
rclavicle 1.82882e-014 5.48646e-014
rhumerus -25.7788 16.4723 -86.8338
rradius 75.7902
rwrist 0.837719
rhand -25.9702 -11.5
rfingers 7.12502
rthumb 0.574508 -41.479
lclavicle 1.82882e-014 5.48646e-014
lhumerus 37.2628 -27.7714 56.9501
lradius 63.6696
lwrist 63.9881
lhand -36.4304 14.7493
lfingers 7.12502
lthumb -9.52507 44.514
rfemur -9.29922 -2.4814 26.3344
rtibia 46.2758
rfoot -28.8553 -5.14132
rtoes -36.5823
lfemur -67.4952 1.93661 -15.0639
ltibia 52.7061
lfoot -3.03011 -6.67507
ltoes -5.15274
1081
root -11.3892 15.3564 34.0809 24.307 -25.0145 -8.33885
lowerback 12.8959 -1.86749 5.17512
upperback 13.6734 -2.31979 -1.07285
thorax 7.19156 -0.771126 -3.89595
lowerneck 7.86242 -0.379093 -0.230202
upperneck -6.166 0.147124 9.11642
head -3.45609 -0.321616 3.10027
rclavicle -2.38542e-015 -8.74653e-015
rhumerus -25.6623 16.3267 -86.8172
rradius 75.7806
rwrist 0.870036
rhand -25.9499 -11.611
rfingers 7.12502
rthumb 0.59413 -41.5899
lclavicle -2.38542e-015 -8.74653e-015
lhumerus 37.1682 -27.7866 56.9412
lradius 63.7574
lwrist 64.0155
lhand -36.4335 14.7288
lfingers 7.12502
lthumb -9.52809 44.4933
rfemur -9.25088 -2.48158 26.3388
rtibia 46.1502
rfoot -28.7703 -5.38577
rtoes -36.5672
lfemur -67.518 1.82369 -15.0174
ltibia 52.8155
lfoot -3.22015 -6.5544
ltoes -4.46795
1082
root -11.3938 15.3573 34.1061 24.3636 -25.0575 -8.31346
lowerback 12.902 -1.88604 5.24323
upperback 13.6833 -2.3395 -1.08659
thorax 7.19634 -0.774275 -3.94749
lowerneck 7.83253 -0.362946 -0.171601
upperneck -6.22684 0.176606 9.08338
head -3.47218 -0.308392 3.0771
rclavicle 7.95139e-016 3.18055e-015
rhumerus -25.5691 16.1795 -86.8058
rradius 75.8005
rwrist 0.900086
rhand -25.938 -11.728
rfingers 7.12502
rthumb 0.605629 -41.7069
lclavicle 7.95139e-016 3.18055e-015
lhumerus 37.0882 -27.8061 56.9241
lradius 63.8355
lwrist 64.0326
lhand -36.4358 14.7102
lfingers 7.12502
lthumb -9.53029 44.4747
rfemur -9.20634 -2.45201 26.3376
rtibia 46.0471
rfoot -28.686 -5.61861
rtoes -36.5541
lfemur -67.533 1.68701 -14.9744
ltibia 52.9142
lfoot -3.39648 -6.43786
ltoes -3.73371
1083
root -11.3983 15.3581 34.1302 24.4077 -25.0908 -8.26512
lowerback 12.9125 -1.9073 5.29384
upperback 13.6861 -2.36306 -1.1011
thorax 7.19017 -0.781098 -3.98937
lowerneck 7.80933 -0.347477 -0.114798
upperneck -6.29197 0.205665 9.0531
head -3.49109 -0.295748 3.0555
rclavicle 3.33958e-014 -2.78299e-014
rhumerus -25.5142 16.037 -86.802
rradius 75.8507
rwrist 0.925213
rhand -25.9273 -11.853
rfingers 7.12502
rthumb 0.615995 -41.8319
lclavicle 3.33958e-014 -2.78299e-014
lhumerus 37.0121 -27.8324 56.9103
lradius 63.9028
lwrist 64.0409
lhand -36.4381 14.7001
lfingers 7.12502
lthumb -9.53255 44.4644
rfemur -9.16821 -2.38516 26.3186
rtibia 45.9596
rfoot -28.5994 -5.84711
rtoes -36.5858
lfemur -67.5459 1.5347 -14.9495
ltibia 53.0027
lfoot -3.56328 -6.32676
ltoes -2.97991
1084
root -11.403 15.3589 34.1535 24.4407 -25.1223 -8.18931
lowerback 12.9215 -1.9279 5.31685
upperback 13.6815 -2.3871 -1.11622
thorax 7.1766 -0.790689 -4.01623
lowerneck 7.79499 -0.332692 -0.0655365
upperneck -6.35832 0.233469 9.02485
head -3.51217 -0.283846 3.03629
rclavicle 3.18055e-015 4.85035e-014
rhumerus -25.4918 15.9081 -86.8012
rradius 75.922
rwrist 0.94183
rhand -25.9268 -11.9422
rfingers 7.12502
rthumb 0.61647 -41.9211
lclavicle 3.18055e-015 4.85035e-014
lhumerus 36.9437 -27.8585 56.9051
lradius 63.9553
lwrist 64.0521
lhand -36.4437 14.6896
lfingers 7.12502
lthumb -9.53794 44.4537
rfemur -9.13329 -2.26974 26.2728
rtibia 45.8796
rfoot -28.5199 -6.04773
rtoes -36.6168
lfemur -67.5589 1.37898 -14.9561
ltibia 53.0821
lfoot -3.72285 -6.22033
ltoes -2.25074
1085
root -11.4077 15.3596 34.1763 24.4666 -25.143 -8.09654
lowerback 12.9302 -1.95263 5.32804
upperback 13.6684 -2.41675 -1.12924
thorax 7.15292 -0.804512 -4.0335
lowerneck 7.78824 -0.319579 -0.0173184
upperneck -6.4203 0.258241 8.98937
head -3.53295 -0.273126 3.0149
rclavicle -8.74653e-015 3.33958e-014
rhumerus -25.5028 15.8074 -86.8022
rradius 76.014
rwrist 0.947085
rhand -25.935 -12.0043
rfingers 7.12502
rthumb 0.608504 -41.9831
lclavicle -8.74653e-015 3.33958e-014
lhumerus 36.8601 -27.8781 56.9316
lradius 63.9973
lwrist 64.0529
lhand -36.4494 14.6817
lfingers 7.12502
lthumb -9.54343 44.4456
rfemur -9.09323 -2.11974 26.2092
rtibia 45.7976
rfoot -28.4474 -6.21167
rtoes -36.6442
lfemur -67.5744 1.22391 -14.9887
ltibia 53.1554
lfoot -3.87656 -6.12274
ltoes -1.57475
1086
root -11.4124 15.3599 34.1983 24.4945 -25.148 -7.99889
lowerback 12.9234 -1.98229 5.34469
upperback 13.6532 -2.4531 -1.14065
thorax 7.13456 -0.821037 -4.05203
lowerneck 7.78527 -0.308216 0.0330346
upperneck -6.48184 0.280167 8.94343
head -3.55399 -0.263468 2.98964
rclavicle -3.26007e-014 -1.51076e-014
rhumerus -25.533 15.7318 -86.8058
rradius 76.1173
rwrist 0.946618
rhand -25.9443 -12.0409
rfingers 7.12502
rthumb 0.599537 -42.0198
lclavicle -3.26007e-014 -1.51076e-014
lhumerus 36.7814 -27.8834 56.9732
lradius 64.0257
lwrist 64.0543
lhand -36.4535 14.6765
lfingers 7.12502
lthumb -9.54734 44.4402
rfemur -9.04843 -1.94197 26.141
rtibia 45.7052
rfoot -28.3844 -6.34096
rtoes -36.6808
lfemur -67.6015 1.07965 -15.0411
ltibia 53.2255
lfoot -4.02027 -6.03794
ltoes -0.976601
